<?xml version="1.0" encoding="UTF-8" standalone="no"?>
<!DOCTYPE svg PUBLIC "-//W3C//DTD SVG 1.1//EN" "http://www.w3.org/Graphics/SVG/1.1/DTD/svg11.dtd">
<svg width="100%" height="100%" viewBox="0 0 935 161" version="1.1" xmlns="http://www.w3.org/2000/svg" xmlns:xlink="http://www.w3.org/1999/xlink" xml:space="preserve" xmlns:serif="http://www.serif.com/" style="fill-rule:evenodd;clip-rule:evenodd;stroke-linejoin:round;stroke-miterlimit:2;">
    <g transform="matrix(1,0,0,1,-48.0062,-821.147)">
        <g transform="matrix(1,0,0,1,0,0.646439)">
            <g transform="matrix(1,0,0,1,-0.0166555,324.643)">
                <path d="M487.97,631.645C492.63,640.214 496.741,646.932 502.397,656.299C471.79,649.369 243.1,641.087 216.774,631.645L487.97,631.645Z" style="fill:rgb(174,175,178);"/>
            </g>
            <g transform="matrix(-1,0,0,1,1030.66,324.643)">
                <path d="M487.97,631.645C492.63,640.214 496.741,646.932 502.397,656.299C471.79,649.369 243.1,641.087 216.774,631.645L487.97,631.645Z" style="fill:rgb(174,175,178);"/>
            </g>
            <path d="M502.201,830.5C496.482,841.705 493.066,848.302 487.953,858.266C487.953,858.266 277.422,858.484 205.969,858.266C162.048,858.133 63.585,848.266 63.585,848.266C56.975,839.255 51.747,829.984 48.006,820.5C48.006,820.5 157.067,830.119 206.264,830.5C281.058,831.08 502.201,830.5 502.201,830.5ZM528.441,830.5C534.161,841.705 537.576,848.302 542.689,858.266C542.689,858.266 753.22,858.484 824.673,858.266C868.594,858.133 967.057,848.266 967.057,848.266C973.667,839.255 978.895,829.984 982.636,820.5C982.636,820.5 873.575,830.119 824.378,830.5C749.584,831.08 528.441,830.5 528.441,830.5Z" style="fill:rgb(174,175,178);"/>
        </g>
        <g transform="matrix(1,0,0,1,-700.571,-75.3)">
            <g transform="matrix(1,0,0,1,693.632,398.649)">
                <path d="M573.1,558.71L566.912,558.71L566.912,544.457L594.217,544.457L594.217,558.71L587.353,558.71L587.353,610.035L594.217,610.035L594.217,624.288L566.912,624.288L566.912,610.035L573.1,610.035L573.1,558.71Z" style="fill:rgb(174,175,178);"/>
            </g>
            <g transform="matrix(1,0,0,1,704.937,398.584)">
                <path d="M351.942,623.94L351.942,544.935L366.195,544.935L366.195,610.297L401.525,610.297L401.525,623.94L351.942,623.94Z" style="fill:rgb(174,175,178);"/>
            </g>
            <g transform="matrix(1,0,0,1,683.215,398.761)">
                <path d="M519.39,544.579L519.39,576.24L545.559,576.24L545.559,544.579L559.811,544.579L559.811,623.94L545.559,623.94L545.559,590.825L519.39,590.825L519.39,623.94L505.137,623.94L505.137,544.579L519.39,544.579Z" style="fill:rgb(174,175,178);"/>
            </g>
            <g transform="matrix(1,0,0,1,713.954,398.761)">
                <path d="M686.602,544.579L686.602,576.24L712.771,576.24L712.771,544.579L727.024,544.579L727.024,623.94L712.771,623.94L712.771,590.825L686.602,590.825L686.602,623.94L672.349,623.94L672.349,544.579L686.602,544.579Z" style="fill:rgb(174,175,178);"/>
            </g>
            <g transform="matrix(1,0,0,1,694.155,398.761)">
                <path d="M296.246,544.579L345.147,544.579L345.147,560.337L310.499,560.337L310.499,575.067L344.976,575.067L344.976,590.825L310.499,590.825L310.499,623.94L296.246,623.94L296.246,544.579Z" style="fill:rgb(174,175,178);"/>
            </g>
            <g transform="matrix(1,0,0,1,699.972,398.761)">
                <path d="M451.187,544.579L469.132,544.579L438.48,597.181L438.48,623.94L424.227,623.94L424.227,597.181L393.576,544.579L411.52,544.579L431.268,581.576L451.187,544.579Z" style="fill:rgb(174,175,178);"/>
            </g>
            <g transform="matrix(1,0,0,1,703.725,399.161)">
                <path d="M630.884,577.465L665.061,577.465L665.061,598.59C665.061,607.954 663.415,614.52 660.124,618.288C656.833,622.056 651.266,623.94 643.424,623.94L623.621,623.94C616.18,623.94 610.656,621.809 607.05,617.546C603.444,613.283 601.641,606.393 601.641,596.877L601.641,572.555C601.641,562.05 603.33,554.628 606.707,550.289C610.084,545.949 615.722,543.78 623.621,543.78L643.167,543.78C650.837,543.78 656.275,545.34 659.48,548.462C663.201,552.116 665.061,558.662 665.061,568.102L650.808,568.102C650.808,565.057 649.978,562.868 648.318,561.536C646.658,560.204 643.71,559.538 639.475,559.538L627.485,559.538C623.135,559.538 620.115,560.623 618.427,562.792C616.738,564.962 615.894,569.015 615.894,574.953L615.894,595.05C615.894,600.455 616.609,603.995 618.04,605.67C619.471,607.345 622.562,608.182 627.313,608.182L641.707,608.182C645.141,608.182 647.517,607.554 648.833,606.298C650.15,605.042 650.808,602.929 650.808,599.961L650.808,591.511L630.884,591.511L630.884,577.465Z" style="fill:rgb(174,175,178);"/>
            </g>
        </g>
        <g transform="matrix(1,0,0,1,0,2)">
            <path d="M261.415,941.167C254.167,941.226 229.065,941.401 209.424,941.149C185.921,940.847 143.384,915.603 127.575,903.383C127.575,903.383 187.064,913.11 208.745,913.383C217.812,913.497 228.69,913.507 237.85,913.484C241.538,923.252 249.625,932.558 261.415,941.167ZM794.224,913.487C803.07,913.506 813.298,913.491 821.897,913.383C843.578,913.11 903.068,903.383 903.068,903.383C887.259,915.603 844.721,940.847 821.218,941.149C802.703,941.387 779.334,941.245 770.645,941.178C782.442,932.569 790.534,923.26 794.224,913.487ZM235.649,899.239C226.971,899.242 217.016,899.239 208.441,899.22C183.28,899.163 106.652,889.22 106.652,889.22C94.683,880.351 84.184,871.074 75.301,861.453C75.301,861.453 175.592,870.919 206.991,871.453C220.342,871.681 237.775,871.638 249.72,871.565C241.173,880.298 236.278,889.592 235.649,899.239ZM782.363,871.574C794.239,871.641 810.828,871.672 823.651,871.453C855.051,870.919 955.341,861.453 955.341,861.453C946.459,871.074 935.96,880.351 923.99,889.22C923.99,889.22 847.362,899.163 822.201,899.22C814.094,899.238 804.752,899.242 796.426,899.239C795.796,889.595 790.904,880.304 782.363,871.574Z" style="fill:rgb(174,175,178);"/>
        </g>
    </g>
</svg>
